<svg version="1.2" xmlns="http://www.w3.org/2000/svg" viewBox="0 0 100 121" width="100" height="121">
	<title>Full-Vertical logo-ORANGE-svg</title>
	<defs>
		<clipPath clipPathUnits="userSpaceOnUse" id="cp1">
			<path d="m0 0.55h100v179h-100z"/>
		</clipPath>
	</defs>
	<style>
		.s0 { fill: #f56d3b } 
	</style>
	<g id="Clip-Path" clip-path="url(#cp1)">
		<g id="Layer">
			<path id="Layer" fill-rule="evenodd" class="s0" d="m0.6 53.4v-52.7h99v29.7l-38-12.4c-7.6-2.5-15.4 3.2-15.4 11.2l0.1 57.8c0 2.7-2.6 4.8-5.3 4.2l-38.9-8c-1-3.9-1.5-8-1.5-12.3v-6.3l21.9-24.9c2-2.4 5.7-2.3 7.6 0.2 1.4 1.9 1.3 4.6-0.3 6.3l-16.8 18.6c-3.5 3.9-1.3 10.1 3.9 10.8l19.9 3c2 0.3 3.9-1.1 4.2-3.1 0.3-2-1.1-3.9-3.1-4.2l-18.3-2.7 15.7-17.4c4-4.4 4.3-11 0.7-15.7-4.7-6.3-14-6.6-19.1-0.7zm39 45.1c7.3 1.5 14.1-4.1 14.1-11.5v-57.9c0-2.9 2.8-5 5.7-4.1l40.2 13.2v18l-21.5 20.9c-2.5 2.4-6.6 2-8.6-1-1.6-2.4-1.1-5.6 1.1-7.4l16.6-13.8c3.9-3.3 2.7-9.6-2.1-11.2l-18.5-6.1c-2-0.6-4.1 0.4-4.7 2.4-0.6 1.9 0.4 4 2.4 4.6l16.9 5.6-15.3 12.8c-5.1 4.2-6.2 11.7-2.5 17.2 4.5 6.8 14 7.9 19.9 2.2l16.3-15.9v4.4c0 27.4-22.2 49.5-49.5 49.5-20.1 0-37.3-11.9-45.1-29.1z"/>
		</g>
	</g>
</svg>